<?xml version="1.0" encoding="utf-8"?>
<svg width="24" height="24" viewBox="0 0 24 24" fill="none" xmlns="http://www.w3.org/2000/svg">
  <rect x="12.137" y="-0.326" width="3.545" height="24.443" style="fill: rgb(49, 46, 43); stroke: rgba(0, 0, 0, 0); transform-origin: 4.805px 15.036px 0px;"/>
  <rect width="12.152" height="24.062" fill="#312E2B" style="transform-origin: 4.805px 15.036px 0px;" x="11.868" y="-0.026" rx="2.395" ry="2.395"/>
  <rect width="12.152" height="24" rx="3" fill="#bebdb9" style="transform-origin: 4.805px 15.036px 0px;" x="0.02" y="0.005"/>
  <rect x="8.623" y="-0.046" width="3.545" height="24.163" style="fill: rgb(190, 189, 185); stroke: rgba(0, 0, 0, 0); transform-origin: 4.805px 15.036px 0px;"/>
  <path style="fill: rgba(49, 46, 43, 0); stroke: rgb(49, 46, 43);" d="M 11.86 0.372 C 2.063 0.698 0.411 -0.547 0.448 2.923 C 0.463 4.279 0.474 10.816 0.482 12.548 C 0.496 15.534 0.464 17.456 0.496 19.183 C 0.555 22.404 0.073 23.591 3.594 23.565 C 5.358 23.552 8.029 23.646 11.872 23.635"/>
  <path style="fill: rgba(49, 46, 43, 0); stroke: rgb(190, 189, 185);" d="M 23.62 23.636 C 14.139 23.31 12.54 24.555 12.576 21.085 C 12.591 19.729 12.601 13.192 12.609 11.46 C 12.622 8.474 12.591 6.552 12.622 4.825 C 12.68 1.604 12.23 0.331 15.621 0.443 C 17.327 0.499 19.913 0.396 23.632 0.407" transform="matrix(-1, 0, 0, -1, 36.208, 24.008)"/>
  <g id="colorpicker-white-sm" transform="matrix(1, 0, 0, 1, -2.66123, 0.457716)" style="transform-origin: 7.466px 14.578px 0px;">
    <g id="group-1"/>
    <path id="path-1" d="M 14.796 1.033 C 14.695 1.033 14.194 1.017 14.102 1.045 C 13.691 1.169 13.392 1.551 13.392 2.002 L 13.392 3.002 L 12.392 3.002 C 11.84 3.002 11.392 3.45 11.392 4.002 L 11.392 5.002 C 11.392 5.554 11.84 6.002 12.392 6.002 L 13.392 6.002 L 13.053 8.974 C 12.29 8.551 11.442 8.101 10.199 8.101 C 7.768 8.101 6.412 9.847 6.412 11.875 C 6.412 13.622 7.401 14.833 8.39 15.791 C 8.983 16.382 9.605 16.861 10.029 18.016 M 14.821 18.033 C 9.988 18.033 8.392 18.495 8.392 20.157 L 8.392 21.002 L 14.865 21.033" style="stroke: rgb(49, 46, 43);"/>
    <path id="path-2" d="M 13.392 15.002 L 13.392 11.843 C 13.392 11.843 12.055 11.002 11.059 11.002 C 10.319 11.002 9.892 11.582 9.892 12.133 C 9.892 13.205 11.486 14.684 11.742 15.002 L 13.392 15.002 Z" style="stroke: rgb(49, 46, 43);"/>
  </g>
  <g id="colorpicker-black-sm" style="transform-origin: 4.568px 15.063px 0px;" transform="matrix(1, 0, 0, 1, 0.236767, -0.026284)">
    <g id="Rectangle 19"/>
    <path id="Vector" d="M 16.778 18.514 C 17.174 17.387 17.711 16.993 18.417 16.289 C 19.435 15.275 20.424 14.12 20.424 12.401 C 20.424 10.458 19.124 8.599 16.665 8.599 C 15.45 8.599 14.489 9.049 13.754 9.472 L 13.5 6.5 L 14.5 6.5 C 15.052 6.5 15.5 6.052 15.5 5.5 L 15.5 4.5 C 15.5 3.948 15.052 3.5 14.5 3.5 L 13.542 3.5 L 13.542 2.5 C 13.542 2.015 13.196 1.61 12.737 1.519 C 12.674 1.507 11.988 1.5 11.921 1.5 M 11.968 21.531 L 18.5 21.5 L 18.5 20.655 C 18.5 18.993 16.761 18.531 11.929 18.531" stroke="#BEBDB9"/>
    <path id="Vector_2" d="M13.5 15.5V12.3406C13.5 12.3406 14.8374 11.5 15.8333 11.5C16.5732 11.5 17 12.0797 17 12.6304C17 13.7029 15.4065 15.1812 15.1504 15.5H13.5Z" stroke="#BEBDB9"/>
  </g>
  <rect x="11.722" y="-0.367" width="0.849" height="25.065" style="stroke: rgba(0, 0, 0, 0); fill: rgb(0, 0, 0);"/>
</svg>